<svg xmlns="http://www.w3.org/2000/svg" width="960" height="800" viewBox="0 0 960 800"><path fill="none" stroke="#3c91b0" stroke-opacity="0.12" stroke-width="0.7" d="M2 118 C17 49 87 13 192 2"/><path fill="none" stroke="#3c91b0" stroke-opacity="0.16499999999999998" stroke-width="1.1" d="M5 163 C28 61 99 25 266 3"/><path fill="none" stroke="#3c91b0" stroke-opacity="0.21" stroke-width="0.7" d="M7 77 C51 44 108 3 200 1"/><path fill="none" stroke="#3c91b0" stroke-opacity="0.12" stroke-width="1.1" d="M18 210 C5 105 29 47 105 8"/><path fill="none" stroke="#3c91b0" stroke-opacity="0.16499999999999998" stroke-width="0.7" d="M4 57 C83 3 175 12 302 99"/><path fill="none" stroke="#3c91b0" stroke-opacity="0.21" stroke-width="1.1" d="M63 3 C126 31 149 74 263 101"/><path fill="none" stroke="#3c91b0" stroke-opacity="0.12" stroke-width="0.7" d="M158 2 C397 23 525 3 697 105"/><path fill="none" stroke="#3c91b0" stroke-opacity="0.16499999999999998" stroke-width="1.1" d="M469 2 C652 4 782 36 902 105"/><path fill="none" stroke="#3c91b0" stroke-opacity="0.21" stroke-width="0.7" d="M684 104 C734 25 844 8 957 29"/><path fill="none" stroke="#3c91b0" stroke-opacity="0.12" stroke-width="1.1" d="M737 104 C803 52 867 9 958 9"/><path fill="none" stroke="#3c91b0" stroke-opacity="0.16499999999999998" stroke-width="0.7" d="M958 602 C924 702 830 773 664 798"/><path fill="none" stroke="#3c91b0" stroke-opacity="0.21" stroke-width="1.1" d="M958 683 C879 751 795 798 586 799"/><path fill="none" stroke="#3c91b0" stroke-opacity="0.12" stroke-width="0.7" d="M957 724 C885 778 818 781 735 798"/><path fill="none" stroke="#3c91b0" stroke-opacity="0.16499999999999998" stroke-width="1.1" d="M942 595 C973 695 938 767 873 794"/><path fill="none" stroke="#3c91b0" stroke-opacity="0.21" stroke-width="0.7" d="M3 655 C26 752 104 783 217 798"/><path fill="none" stroke="#3c91b0" stroke-opacity="0.12" stroke-width="1.1" d="M3 710 C67 751 138 781 303 798"/><path fill="none" stroke="#3c91b0" stroke-opacity="0.16499999999999998" stroke-width="0.7" d="M8 772 C44 787 77 795 168 798"/><path fill="none" stroke="#3c91b0" stroke-opacity="0.21" stroke-width="1.1" d="M794 798 C847 764 885 723 952 691"/></svg>