o main_city_lv02_collision
v 48.00000 0.00000 -0.00000
v 33.94113 0.00000 -33.94113
v 0.00000 0.00000 -48.00000
v -33.94113 0.00000 -33.94113
v -48.00000 0.00000 -0.00000
v -33.94113 0.00000 33.94113
v -0.00000 0.00000 48.00000
v 33.94113 0.00000 33.94113
v 48.00000 52.00000 -0.00000
v 33.94113 52.00000 -33.94113
v 0.00000 52.00000 -48.00000
v -33.94113 52.00000 -33.94113
v -48.00000 52.00000 -0.00000
v -33.94113 52.00000 33.94113
v -0.00000 52.00000 48.00000
v 33.94113 52.00000 33.94113
f 8 7 6 5 4 3 2 1
f 9 10 11 12 13 14 15 16
f 1 2 10 9
f 2 3 11 10
f 3 4 12 11
f 4 5 13 12
f 5 6 14 13
f 6 7 15 14
f 7 8 16 15
f 8 1 9 16
